<?xml version="1.0" encoding="UTF-8" standalone="no"?>
<!-- Created with Inkscape (http://www.inkscape.org/) -->
<svg
   xmlns:dc="http://purl.org/dc/elements/1.1/"
   xmlns:cc="http://web.resource.org/cc/"
   xmlns:rdf="http://www.w3.org/1999/02/22-rdf-syntax-ns#"
   xmlns:svg="http://www.w3.org/2000/svg"
   xmlns="http://www.w3.org/2000/svg"
   xmlns:xlink="http://www.w3.org/1999/xlink"
   xmlns:sodipodi="http://inkscape.sourceforge.net/DTD/sodipodi-0.dtd"
   xmlns:inkscape="http://www.inkscape.org/namespaces/inkscape"
   width="841.88977pt"
   height="595.27557pt"
   id="svg2"
   sodipodi:version="0.32"
   inkscape:version="0.43"
   version="1.0"
   sodipodi:docbase="/home/cas/bzr/scyther-gui/images"
   sodipodi:docname="scyther-logo.svg">
  <defs
     id="defs4">
    <linearGradient
       id="linearGradient11078">
      <stop
         id="stop11080"
         offset="0"
         style="stop-color:#000000;stop-opacity:0.57731956;" />
      <stop
         style="stop-color:#000000;stop-opacity:0;"
         offset="0.209216"
         id="stop11084" />
      <stop
         id="stop11086"
         offset="0.65205503"
         style="stop-color:#000000;stop-opacity:0.2371134;" />
      <stop
         id="stop11082"
         offset="1"
         style="stop-color:#000000;stop-opacity:0.67010307;" />
    </linearGradient>
    <linearGradient
       id="linearGradient11052">
      <stop
         id="stop11054"
         offset="0"
         style="stop-color:#000000;stop-opacity:1;" />
      <stop
         style="stop-color:#276816;stop-opacity:1;"
         offset="0.25145975"
         id="stop11060" />
      <stop
         id="stop11066"
         offset="0.57149941"
         style="stop-color:#000000;stop-opacity:1;" />
      <stop
         id="stop11062"
         offset="0.57149941"
         style="stop-color:#010400;stop-opacity:1;" />
      <stop
         style="stop-color:#002583;stop-opacity:1;"
         offset="0.8028897"
         id="stop11064" />
      <stop
         id="stop11056"
         offset="1"
         style="stop-color:#000000;stop-opacity:1;" />
    </linearGradient>
    <linearGradient
       id="linearGradient11044">
      <stop
         style="stop-color:#000000;stop-opacity:1;"
         offset="0"
         id="stop11046" />
      <stop
         style="stop-color:#000000;stop-opacity:0;"
         offset="1"
         id="stop11048" />
    </linearGradient>
    <linearGradient
       id="linearGradient7532">
      <stop
         id="stop7534"
         offset="0"
         style="stop-color:#9e9e9e;stop-opacity:1;" />
      <stop
         id="stop7536"
         offset="1"
         style="stop-color:#9e9e9e;stop-opacity:0;" />
    </linearGradient>
    <linearGradient
       inkscape:collect="always"
       id="linearGradient7512">
      <stop
         style="stop-color:#9e9e9e;stop-opacity:1"
         offset="0"
         id="stop7514" />
      <stop
         style="stop-color:#000000;stop-opacity:0;"
         offset="1"
         id="stop7516" />
    </linearGradient>
    <radialGradient
       inkscape:collect="always"
       xlink:href="#linearGradient7512"
       id="radialGradient7518"
       cx="414.33603"
       cy="230.19302"
       fx="414.33603"
       fy="230.19302"
       r="7.9287024"
       gradientTransform="matrix(1,0,0,0.948454,0,11.95446)"
       gradientUnits="userSpaceOnUse" />
    <linearGradient
       inkscape:collect="always"
       xlink:href="#linearGradient11052"
       id="linearGradient11050"
       x1="946.16272"
       y1="414.59949"
       x2="502.26108"
       y2="308.79739"
       gradientUnits="userSpaceOnUse" />
    <linearGradient
       inkscape:collect="always"
       xlink:href="#linearGradient11078"
       id="linearGradient11076"
       gradientUnits="userSpaceOnUse"
       x1="550.63184"
       y1="453.29272"
       x2="552.41901"
       y2="157.52292" />
  </defs>
  <sodipodi:namedview
     id="base"
     pagecolor="#ffffff"
     bordercolor="#666666"
     borderopacity="1.0"
     inkscape:pageopacity="0.0"
     inkscape:pageshadow="2"
     inkscape:zoom="1.0576614"
     inkscape:cx="526.1811"
     inkscape:cy="372.04725"
     inkscape:document-units="px"
     inkscape:current-layer="layer1"
     showguides="true"
     inkscape:guide-bbox="true"
     inkscape:window-width="1280"
     inkscape:window-height="953"
     inkscape:window-x="0"
     inkscape:window-y="0">
    <sodipodi:guide
       orientation="horizontal"
       position="296.88141"
       id="guide1366" />
    <sodipodi:guide
       orientation="horizontal"
       position="571.88122"
       id="guide8421" />
    <sodipodi:guide
       orientation="vertical"
       position="206.87725"
       id="guide8423" />
  </sodipodi:namedview>
  <metadata
     id="metadata7">
    <rdf:RDF>
      <cc:Work
         rdf:about="">
        <dc:format>image/svg+xml</dc:format>
        <dc:type
           rdf:resource="http://purl.org/dc/dcmitype/StillImage" />
      </cc:Work>
    </rdf:RDF>
  </metadata>
  <g
     inkscape:label="Black base"
     inkscape:groupmode="layer"
     id="layer1"
     style="display:inline">
    <rect
       style="opacity:1;fill:url(#linearGradient11050);fill-opacity:1;stroke:#000000;stroke-width:10.19999981;stroke-miterlimit:4;stroke-dasharray:none;stroke-dashoffset:0;stroke-opacity:1"
       id="rect7546"
       width="741.25806"
       height="320.51846"
       x="196.66029"
       y="162.62292" />
  </g>
  <g
     inkscape:groupmode="layer"
     id="layer7"
     inkscape:label="blacker fades"
     style="display:inline"
     sodipodi:insensitive="true">
    <rect
       style="opacity:1;fill:url(#linearGradient11076);fill-opacity:1;stroke:none;stroke-width:10.19999981;stroke-miterlimit:4;stroke-dasharray:none;stroke-dashoffset:0;stroke-opacity:1"
       id="rect11074"
       width="741.25806"
       height="320.51846"
       x="196.66029"
       y="162.62292" />
  </g>
  <g
     inkscape:groupmode="layer"
     id="layer4"
     inkscape:label="white inner"
     style="display:inline">
    <path
       style="font-size:48px;font-style:oblique;font-variant:normal;font-weight:bold;font-stretch:normal;text-align:start;line-height:125%;writing-mode:lr-tb;text-anchor:start;opacity:1;fill:#ffffff;fill-opacity:1;stroke:none;stroke-opacity:1;display:inline;font-family:Luxi Serif"
       d="M 166.36807,362.27667 L 203.04972,362.22217 L 201.44258,367.64404 C 201.44258,367.64404 197.36207,364.3788 193.39062,364.33238 C 191.51573,364.31047 189.90623,364.99648 188.5625,366.32457 C 187.21873,367.6371 186.54686,369.16054 186.54688,370.89488 C 186.54686,372.47303 187.8203,374.09803 190.36719,375.76988 L 192.42969,377.12926 C 195.13279,378.91053 196.94529,380.41052 197.86719,381.62926 C 198.86716,382.91052 199.36716,384.44177 199.36719,386.22301 C 199.36716,389.66052 197.90622,392.55895 194.98438,394.91832 C 192.06248,397.27769 188.31598,398.62366 183.92542,398.64354 L 166.38414,398.72293"
       id="path7544"
       sodipodi:nodetypes="cccscscccsssc"
       transform="matrix(7.380396,0,0,7.152327,-998.9757,-2404.166)" />
  </g>
  <g
     inkscape:groupmode="layer"
     id="layer5"
     inkscape:label="beak"
     style="display:inline"
     sodipodi:insensitive="true">
    <g
       id="g11068">
      <path
         sodipodi:nodetypes="csssccsssc"
         id="path4889"
         d="M 328.86432,259.9149 C 338.0445,239.85744 356.12403,242.39075 360.22871,237.31603 C 364.96014,231.46644 365.43423,234.12892 369.84702,229.24827 C 387.46285,209.76477 406.27924,204.48034 424.83999,203.37137 C 439.96977,202.45936 450.995,221.24283 450.995,221.24283 L 449.64179,252.75224 C 449.64179,252.75224 483.39989,277.05239 473.06805,290.26649 C 463.31125,302.74513 455.00426,302.2612 442.74338,294.65348 C 429.88911,286.67757 396.51687,268.78669 383.94847,264.40305 C 367.12603,258.53568 354.49504,259.06212 328.86432,259.9149 z "
         style="opacity:1;fill:#000000;fill-opacity:1;fill-rule:evenodd;stroke:none;stroke-width:1px;stroke-linecap:butt;stroke-linejoin:miter;stroke-opacity:1" />
      <path
         d="M 424.38995 231.91666 A 7.9287024 7.5200067 0 1 1  408.53254,231.91666 A 7.9287024 7.5200067 0 1 1  424.38995 231.91666 z"
         sodipodi:ry="7.5200067"
         sodipodi:rx="7.9287024"
         sodipodi:cy="231.91666"
         sodipodi:cx="416.46124"
         id="path6637"
         style="opacity:1;fill:url(#radialGradient7518);fill-opacity:1;stroke:#575757;stroke-width:0.5;stroke-miterlimit:4;stroke-dasharray:1.5, 0.5;stroke-dashoffset:0;stroke-opacity:1"
         sodipodi:type="arc" />
    </g>
  </g>
  <g
     inkscape:groupmode="layer"
     id="layer3"
     inkscape:label="cyther"
     sodipodi:insensitive="true"
     style="display:inline">
    <path
       transform="matrix(2.668626,0,0,2.668626,226.6234,-92.92364)"
       style="font-size:56px;font-style:oblique;font-variant:normal;font-weight:bold;font-stretch:normal;text-align:start;line-height:125%;writing-mode:lr-tb;text-anchor:start;fill:#ffffff;fill-opacity:1;font-family:Luxi Serif"
       d="M 113.90234,195.92424 L 113.10938,199.99846 C 109.93748,200.92814 107.26691,201.39299 105.09766,201.39299 C 101.5065,201.39299 98.708324,200.43596 96.703125,198.52189 C 94.679683,196.60784 93.667965,193.837 93.667969,190.20939 C 93.667965,184.59483 95.363276,179.81879 98.753906,175.88127 C 102.14452,171.96203 106.35545,170.00239 111.38672,170.00236 C 113.8294,170.00239 116.28122,170.45812 118.74219,171.36955 L 117.18359,179.10783 L 112.61719,179.10783 L 112.69922,178.61564 L 112.97266,176.59221 C 112.97263,176.55577 112.98175,176.40082 113,176.12736 L 113,175.93596 C 112.99998,173.67557 112.18878,172.54536 110.56641,172.54533 C 108.47003,172.54536 106.638,174.35005 105.07031,177.95939 C 103.11978,182.46202 102.14452,186.83701 102.14453,191.08439 C 102.14452,195.31357 103.95832,197.42815 107.58594,197.42814 C 109.31769,197.42815 111.42316,196.92685 113.90234,195.92424 M 120.13672,173.22892 L 120.65625,170.68596 L 134.95703,170.68596 L 134.4375,173.22892 L 133.91797,173.25627 L 133.64453,173.25627 C 133.40753,173.27453 133.2617,173.28364 133.20703,173.28361 L 132.93359,173.25627 L 132.74219,173.31096 C 132.23175,173.47505 131.92186,173.59354 131.8125,173.66642 C 131.72134,173.72114 131.62108,173.85786 131.51172,174.07658 C 131.31118,174.45942 131.21092,174.80577 131.21094,175.11564 C 131.21092,175.15213 131.22915,175.28885 131.26562,175.5258 L 131.29297,175.82658 C 131.3841,176.66515 131.53905,177.63129 131.75781,178.72502 L 133.91797,189.93596 L 140.17969,178.72502 L 140.45312,178.20549 L 140.72656,177.74064 C 140.87237,177.449 140.99997,177.20291 141.10938,177.00236 L 141.95703,175.27971 C 142.19398,174.80577 142.31247,174.3865 142.3125,174.02189 C 142.31247,173.60265 141.91143,173.36567 141.10938,173.31096 L 140.37109,173.25627 L 139.85156,173.22892 L 140.37109,170.68596 L 148.65625,170.68596 L 148.13672,173.22892 L 147.64453,173.25627 L 146.85156,173.28361 C 145.9583,173.33833 145.10153,174.1951 144.28125,175.85392 C 144.2083,175.98155 144.10804,176.17296 143.98047,176.42814 C 143.56117,177.17556 143.15101,177.91384 142.75,178.64299 L 124.42969,211.51017 L 116.58203,211.51017 L 127.68359,200.54533 L 123.36328,178.72502 L 122.81641,175.88127 C 122.48827,174.20421 121.76822,173.32921 120.65625,173.25627 L 120.13672,173.22892 M 149.14844,173.39299 L 149.66797,170.68596 L 152.70312,170.68596 L 153.71484,165.62736 L 162.10938,164.20549 L 160.79688,170.68596 L 165.96484,170.68596 L 165.41797,173.39299 L 160.27734,173.39299 L 156.64062,191.57658 L 156.17578,193.9008 C 156.02993,194.61174 155.95702,195.23153 155.95703,195.76017 C 155.95702,197.36434 156.67707,198.16643 158.11719,198.16642 C 158.82811,198.16643 159.7578,197.95679 160.90625,197.53752 L 160.33203,200.4633 C 158.49087,201.08309 156.8229,201.39299 155.32812,201.39299 C 153.1953,201.39299 151.45442,200.86434 150.10547,199.80705 C 148.73828,198.74976 148.05468,197.34612 148.05469,195.59611 C 148.05468,194.5206 148.22786,193.11695 148.57422,191.38517 L 152.18359,173.39299 L 149.14844,173.39299 M 161.97266,200.70939 L 162.49219,198.16642 L 163.01172,198.13908 C 164.26953,198.04794 165.02604,197.79273 165.28125,197.37346 C 165.53645,197.00888 165.7552,196.37997 165.9375,195.48674 L 166.53906,192.77971 L 172.00781,165.4633 L 172.5,162.75627 C 172.62759,162.15474 172.69139,161.7537 172.69141,161.55314 C 172.69139,160.7511 171.99869,160.26803 170.61328,160.10392 L 170.12109,160.04924 L 170.61328,157.53361 L 181.6875,157.53361 L 178.05078,175.66252 C 179.29035,173.96723 180.52081,172.70031 181.74219,171.86174 C 183.52862,170.62218 185.50649,170.00239 187.67578,170.00236 C 191.75908,170.00239 193.80075,171.92557 193.80078,175.77189 C 193.80075,176.86567 193.66403,178.09614 193.39062,179.4633 L 190.73828,192.77971 L 190.24609,195.48674 C 190.11846,196.10653 190.05466,196.50757 190.05469,196.68986 C 190.05466,197.58309 190.73825,198.06617 192.10547,198.13908 L 192.625,198.16642 L 192.10547,200.70939 L 178.40625,200.70939 L 178.92578,198.16642 L 179.44531,198.13908 C 180.81248,198.04794 181.67836,197.16382 182.04297,195.48674 L 182.64453,192.77971 L 185.10547,180.39299 C 185.41534,178.8253 185.57029,177.77712 185.57031,177.24846 C 185.57029,175.699 184.74086,174.92426 183.08203,174.92424 C 181.24087,174.92426 179.36326,176.18207 177.44922,178.69767 L 174.63281,192.77971 L 174.14062,195.48674 C 174.01301,196.12476 173.94921,196.55315 173.94922,196.77189 C 173.94921,197.62867 174.52342,198.0844 175.67188,198.13908 L 176.19141,198.16642 L 175.67188,200.70939 L 161.97266,200.70939 M 216.85156,195.43205 L 216.03125,199.53361 C 212.73175,200.7732 209.65102,201.39299 206.78906,201.39299 C 199.67968,201.39299 196.125,197.72893 196.125,190.4008 C 196.125,184.74977 197.66536,179.93728 200.74609,175.9633 C 203.80858,171.98937 207.58202,170.00239 212.06641,170.00236 C 217.15232,170.00239 219.69529,172.75499 219.69531,178.26017 C 219.69529,180.62999 219.42185,182.99978 218.875,185.36955 L 218.73828,185.97111 L 204.875,185.97111 C 204.45572,188.35915 204.24608,190.2094 204.24609,191.52189 C 204.24608,195.38648 205.99608,197.31877 209.49609,197.31877 C 211.61066,197.31877 214.06248,196.68987 216.85156,195.43205 M 205.58594,183.42814 L 211.27344,183.42814 C 212.11196,179.21723 212.53123,176.3826 212.53125,174.92424 C 212.53123,173.33833 212.03904,172.54536 211.05469,172.54533 C 209.06769,172.54536 207.24478,176.17296 205.58594,183.42814 M 217.97266,200.70939 L 218.46484,198.16642 L 218.98438,198.13908 C 220.1875,198.06617 220.92578,197.8383 221.19922,197.45549 C 221.47265,197.10914 221.71875,196.45289 221.9375,195.48674 L 222.51172,192.77971 L 225.35547,178.61564 L 225.84766,175.90861 C 225.97525,175.28885 226.03905,174.8878 226.03906,174.70549 C 226.03905,173.81229 225.34635,173.32921 223.96094,173.25627 L 223.46875,173.22892 L 223.96094,170.68596 L 235.03516,170.68596 L 233.91406,176.34611 C 237.35935,172.11697 240.97784,170.00239 244.76953,170.00236 C 245.37107,170.00239 245.99997,170.07531 246.65625,170.22111 L 244.74219,179.79142 L 241.02344,179.79142 L 241.10547,179.29924 L 241.24219,178.01408 C 241.36977,177.10265 241.43357,176.56489 241.43359,176.4008 C 241.43357,175.79926 240.95961,175.49848 240.01172,175.49846 C 237.56899,175.49848 235.34503,176.74718 233.33984,179.24455 L 230.60547,192.77971 C 230.31379,194.21982 230.16796,195.47763 230.16797,196.55314 C 230.16796,197.40992 230.86978,197.89299 232.27344,198.00236 L 234.10547,198.13908 L 234.59766,198.16642 L 234.10547,200.70939 L 217.97266,200.70939"
       id="flowRoot1358" />
  </g>
</svg>
