<?xml version="1.0" encoding="UTF-8" standalone="no"?>
<!-- Created with Inkscape (http://www.inkscape.org/) -->
<svg
   xmlns:dc="http://purl.org/dc/elements/1.1/"
   xmlns:cc="http://web.resource.org/cc/"
   xmlns:rdf="http://www.w3.org/1999/02/22-rdf-syntax-ns#"
   xmlns:svg="http://www.w3.org/2000/svg"
   xmlns="http://www.w3.org/2000/svg"
   xmlns:xlink="http://www.w3.org/1999/xlink"
   xmlns:sodipodi="http://sodipodi.sourceforge.net/DTD/sodipodi-0.dtd"
   xmlns:inkscape="http://www.inkscape.org/namespaces/inkscape"
   width="32"
   height="32"
   id="svg2"
   sodipodi:version="0.32"
   inkscape:version="0.44"
   version="1.0"
   sodipodi:docbase="/home/cas/svn/scyther/Design"
   sodipodi:docname="scyther-button-beta6-angle.svg">
  <defs
     id="defs4">
    <linearGradient
       inkscape:collect="always"
       id="linearGradient3708">
      <stop
         style="stop-color:#fefefe;stop-opacity:1;"
         offset="0"
         id="stop3710" />
      <stop
         style="stop-color:#fefefe;stop-opacity:0;"
         offset="1"
         id="stop3712" />
    </linearGradient>
    <linearGradient
       id="linearGradient16752">
      <stop
         id="stop16754"
         offset="0"
         style="stop-color:black;stop-opacity:0;" />
      <stop
         style="stop-color:black;stop-opacity:0;"
         offset="0.06537243"
         id="stop16760" />
      <stop
         style="stop-color:black;stop-opacity:1;"
         offset="0.81061816"
         id="stop16758" />
      <stop
         id="stop16756"
         offset="1"
         style="stop-color:black;stop-opacity:0.98989898;" />
    </linearGradient>
    <linearGradient
       id="linearGradient15734">
      <stop
         id="stop15736"
         offset="0"
         style="stop-color:#faffdb;stop-opacity:1;" />
      <stop
         id="stop15738"
         offset="1"
         style="stop-color:#89cae1;stop-opacity:0.99215686;" />
    </linearGradient>
    <linearGradient
       id="linearGradient7727">
      <stop
         id="stop7729"
         offset="0"
         style="stop-color:#fc8024;stop-opacity:1;" />
      <stop
         style="stop-color:#86a82c;stop-opacity:1;"
         offset="0.67741936"
         id="stop4602" />
      <stop
         id="stop7731"
         offset="1"
         style="stop-color:#13d035;stop-opacity:1;" />
    </linearGradient>
    <linearGradient
       id="linearGradient4004">
      <stop
         style="stop-color:#60524a;stop-opacity:1;"
         offset="0"
         id="stop4006" />
      <stop
         style="stop-color:#f8fcdf;stop-opacity:1;"
         offset="1"
         id="stop4008" />
    </linearGradient>
    <linearGradient
       id="linearGradient3973">
      <stop
         style="stop-color:#fffb64;stop-opacity:1;"
         offset="0"
         id="stop3975" />
      <stop
         id="stop5940"
         offset="0.65816855"
         style="stop-color:#ff9a3c;stop-opacity:1;" />
      <stop
         style="stop-color:#8478b6;stop-opacity:1;"
         offset="0.77419353"
         id="stop16741" />
      <stop
         style="stop-color:#3d49fe;stop-opacity:1;"
         offset="1"
         id="stop3977" />
    </linearGradient>
    <radialGradient
       inkscape:collect="always"
       xlink:href="#linearGradient15734"
       id="radialGradient15740"
       cx="16"
       cy="19.760824"
       fx="16"
       fy="19.760824"
       r="16"
       gradientUnits="userSpaceOnUse"
       gradientTransform="matrix(0.871233,-5.251187e-7,5.812853e-7,1.195697,2.060264,-4.477073)" />
    <radialGradient
       inkscape:collect="always"
       xlink:href="#linearGradient16752"
       id="radialGradient16750"
       cx="16.15625"
       cy="19.352287"
       fx="16.15625"
       fy="19.352287"
       r="14.5"
       gradientTransform="matrix(-0.758621,0,0,-0.758621,28.25647,34.03333)"
       gradientUnits="userSpaceOnUse"
       spreadMethod="pad" />
    <linearGradient
       inkscape:collect="always"
       xlink:href="#linearGradient7727"
       id="linearGradient1923"
       gradientUnits="userSpaceOnUse"
       gradientTransform="matrix(0.808454,-0.16415,0.167526,0.943706,2.591978,15.12306)"
       x1="-3.2503023"
       y1="13.136638"
       x2="30.916565"
       y2="13.136638" />
    <linearGradient
       inkscape:collect="always"
       xlink:href="#linearGradient3973"
       id="linearGradient5564"
       gradientUnits="userSpaceOnUse"
       gradientTransform="matrix(1.061229,0,0,0.799285,-1.287242,1.65672)"
       x1="12.44776"
       y1="17.276825"
       x2="21.725344"
       y2="17.458473" />
    <linearGradient
       inkscape:collect="always"
       xlink:href="#linearGradient3973"
       id="linearGradient5566"
       gradientUnits="userSpaceOnUse"
       gradientTransform="matrix(0.893561,0,0,0.728734,1.978204,10.21511)"
       spreadMethod="reflect"
       x1="13.349456"
       y1="14.045949"
       x2="19.811367"
       y2="13.968561" />
    <linearGradient
       inkscape:collect="always"
       xlink:href="#linearGradient3973"
       id="linearGradient5568"
       gradientUnits="userSpaceOnUse"
       gradientTransform="matrix(1.079906,0,0,0.874076,-0.895567,8.20358)"
       spreadMethod="pad"
       x1="17.740734"
       y1="15.886334"
       x2="13.790079"
       y2="12.420326" />
    <linearGradient
       inkscape:collect="always"
       xlink:href="#linearGradient3708"
       id="linearGradient5570"
       gradientUnits="userSpaceOnUse"
       gradientTransform="matrix(1.061229,0,0,0.851852,-1.236989,3.09259)"
       x1="16.732565"
       y1="20.49404"
       x2="19.356272"
       y2="20.49404" />
  </defs>
  <sodipodi:namedview
     id="base"
     pagecolor="#ffffff"
     bordercolor="#666666"
     borderopacity="1.0"
     gridtolerance="10000"
     guidetolerance="10"
     objecttolerance="10"
     inkscape:pageopacity="0.0"
     inkscape:pageshadow="2"
     inkscape:zoom="23.46875"
     inkscape:cx="11.45624"
     inkscape:cy="16.350725"
     inkscape:document-units="px"
     inkscape:current-layer="layer9"
     width="32px"
     height="32px"
     inkscape:window-width="1274"
     inkscape:window-height="948"
     inkscape:window-x="0"
     inkscape:window-y="0"
     showgrid="true"
     gridspacingx="0.5px"
     gridspacingy="0.5px"
     gridempspacing="8"
     inkscape:grid-points="true" />
  <metadata
     id="metadata7">
    <rdf:RDF>
      <cc:Work
         rdf:about="">
        <dc:format>image/svg+xml</dc:format>
        <dc:type
           rdf:resource="http://purl.org/dc/dcmitype/StillImage" />
      </cc:Work>
    </rdf:RDF>
  </metadata>
  <g
     inkscape:groupmode="layer"
     id="layer9"
     inkscape:label="book shadow">
    <rect
       style="opacity:0.48557691;fill:black;fill-opacity:1;fill-rule:evenodd;stroke:black;stroke-width:0.99999988;stroke-linecap:round;stroke-linejoin:miter;stroke-miterlimit:4;stroke-dasharray:none;stroke-dashoffset:0;stroke-opacity:0.52513966"
       id="rect6458"
       width="27.499987"
       height="29.991934"
       x="2.9999986"
       y="1.5" />
  </g>
  <g
     inkscape:groupmode="layer"
     id="layer4"
     inkscape:label="background"
     style="display:inline"
     sodipodi:insensitive="true">
    <rect
       style="opacity:1;fill:url(#radialGradient15740);fill-opacity:1;fill-rule:evenodd;stroke:none;stroke-width:1;stroke-linecap:round;stroke-linejoin:miter;stroke-miterlimit:4;stroke-dasharray:none;stroke-dashoffset:0;stroke-opacity:1;display:inline"
       id="rect5945"
       width="27.870968"
       height="30.980282"
       x="2.0645161"
       y="0.019719051" />
  </g>
  <g
     inkscape:groupmode="layer"
     id="layer8"
     inkscape:label="wheel"
     style="opacity:1;display:inline"
     sodipodi:insensitive="true">
    <path
       style="opacity:0.16538463;fill:url(#radialGradient16750);fill-opacity:1;fill-rule:evenodd;stroke:none;stroke-width:2.5999999;stroke-linecap:round;stroke-linejoin:miter;stroke-miterlimit:4;stroke-dasharray:none;stroke-dashoffset:0;stroke-opacity:1"
       d="M 16,30.352287 C 22.059487,30.352287 27,25.406444 27,19.340421 C 27,13.274397 22.059487,8.352287 16,8.352287 C 9.9405135,8.352287 5.0000007,13.274397 4.9999999,19.340421 C 4.9999999,25.406444 9.9405135,30.352287 16,30.352287 z M 16,28.382492 C 15.589316,28.382492 15.187024,28.34058 14.790948,28.287562 L 15.952586,21.737401 L 17.090517,28.311295 C 16.733072,28.354321 16.369361,28.382492 16,28.382492 z M 17.825431,28.192632 L 16.663793,21.618738 L 20.030172,27.433193 C 19.337874,27.781015 18.606567,28.032643 17.825431,28.192632 z M 14.056035,28.1689 C 13.287827,28.000695 12.556121,27.735748 11.875,27.385728 L 15.217673,21.642471 L 14.056035,28.1689 z M 20.693965,27.053473 L 17.351293,21.262751 L 22.49569,25.582061 C 21.960435,26.142546 21.357855,26.646119 20.693965,27.053473 z M 11.234914,27.006008 C 10.576756,26.595531 9.9872088,26.095593 9.4568965,25.534596 L 14.577586,21.239018 L 11.234914,27.006008 z M 22.993535,25.012481 L 17.825431,20.693171 L 24.226293,23.018954 C 23.90582,23.74144 23.482489,24.405255 22.993535,25.012481 z M 8.9590517,24.988749 C 8.4729458,24.382921 8.0686707,23.714738 7.7499999,22.995221 L 14.056035,20.693171 L 8.9590517,24.988749 z M 24.487069,22.306979 L 18.0625,19.981198 L 24.984914,19.981198 C 24.928201,20.796203 24.743994,21.566023 24.487069,22.306979 z M 7.4655172,22.283247 C 7.2130331,21.55077 7.0476787,20.785638 6.9913792,19.981198 L 13.818966,19.981198 L 7.4655172,22.283247 z M 25.008621,19.221759 L 18.0625,19.221759 L 24.653018,16.824779 C 24.872841,17.58775 24.997916,18.388525 25.008621,19.221759 z M 13.818966,19.221759 L 6.9676723,19.221759 C 6.9782293,18.404807 7.1103795,17.62192 7.3232758,16.872244 L 13.818966,19.221759 z M 17.849138,18.509784 L 23.230603,13.976882 C 23.708993,14.624522 24.09956,15.347331 24.392241,16.112804 L 17.849138,18.509784 z M 14.079741,18.509784 L 7.5603447,16.136537 C 7.8492685,15.376943 8.2497239,14.668828 8.7219828,14.024347 L 14.079741,18.509784 z M 17.351293,17.940205 L 20.907328,11.769762 C 21.601546,12.219774 22.212506,12.764576 22.756466,13.38357 L 17.351293,17.940205 z M 14.553879,17.940205 L 9.1724137,13.431035 C 9.7114304,12.810152 10.332534,12.271546 11.021551,11.817227 L 14.553879,17.940205 z M 16.663793,17.584218 L 17.920259,10.535674 C 18.747746,10.713836 19.518873,11.002574 20.243534,11.390043 L 16.663793,17.584218 z M 15.193966,17.536753 L 11.661638,11.437508 C 12.374084,11.048696 13.148135,10.745932 13.961206,10.559406 L 15.193966,17.536753 z M 15.928879,17.465556 L 14.696121,10.417012 C 15.121718,10.355892 15.557272,10.322082 16,10.322082 C 16.402672,10.322082 16.796968,10.366293 17.185344,10.417012 L 15.928879,17.465556 z "
       id="path15775" />
  </g>
  <g
     inkscape:groupmode="layer"
     id="layer2"
     inkscape:label="Lock"
     style="opacity:1;display:inline"
     sodipodi:insensitive="true">
    <g
       inkscape:groupmode="layer"
       id="layer5"
       inkscape:label="lock ring"
       style="opacity:1;display:inline"
       sodipodi:insensitive="true" />
    <g
       inkscape:groupmode="layer"
       id="layer1"
       inkscape:label="lock pad"
       style="opacity:1;display:inline"
       sodipodi:insensitive="true">
      <g
         id="g5558"
         transform="translate(0.243463,0)">
        <path
           sodipodi:nodetypes="cssssccssssc"
           id="path3968"
           d="M 15.678461,12.249998 C 13.741265,12.249998 12.187989,13.70205 12.187989,15.476511 C 12.187989,16.36374 12.219609,18.580633 12.211963,19.994938 C 12.210551,20.256133 19.209391,20.62066 19.205529,20.060953 C 19.196119,18.60907 19.196855,17.250972 19.196856,15.476511 C 19.196856,13.70205 17.615657,12.249998 15.678461,12.249998 z M 15.678461,13.514796 C 16.871318,13.514796 17.539983,14.271632 17.539983,15.476511 C 17.539983,16.68139 17.504381,18.018982 17.487213,19.579766 C 17.481947,20.058501 13.926324,19.881092 13.929982,19.450008 C 13.944098,17.786465 13.890082,16.078951 13.890082,15.476511 C 13.890082,14.271631 14.485605,13.514796 15.678461,13.514796 z "
           style="opacity:1;fill:url(#linearGradient5564);fill-opacity:1;fill-rule:evenodd;stroke:#010101;stroke-width:0.50000006;stroke-linecap:round;stroke-linejoin:round;stroke-miterlimit:4;stroke-dasharray:none;stroke-dashoffset:0;stroke-opacity:1;display:inline" />
        <rect
           y="17.490114"
           x="11.763067"
           height="6.2598844"
           width="7.986939"
           id="rect3966"
           style="opacity:1;fill:url(#linearGradient5566);fill-opacity:1;fill-rule:evenodd;stroke:#010101;stroke-width:0.5;stroke-linecap:round;stroke-linejoin:round;stroke-miterlimit:4;stroke-dasharray:none;stroke-dashoffset:0;stroke-opacity:1;display:inline" />
        <path
           sodipodi:nodetypes="csccccsc"
           id="path3991"
           d="M 15.741712,18.337415 C 14.853679,18.337415 14.155603,18.921108 14.155603,19.621215 C 14.155603,20.18542 14.460299,20.554223 15.090552,20.810032 L 15.090552,22.704423 L 16.442865,22.717463 L 16.442865,20.823073 C 17.089364,20.580304 17.361569,20.18542 17.361569,19.621215 C 17.361569,18.921108 16.629747,18.337415 15.741712,18.337415 z "
           style="opacity:1;fill:black;fill-opacity:1;fill-rule:evenodd;stroke:url(#linearGradient5568);stroke-width:0.5;stroke-linecap:round;stroke-linejoin:miter;stroke-miterlimit:4;stroke-dasharray:none;stroke-dashoffset:0;stroke-opacity:1;display:inline" />
        <path
           sodipodi:nodetypes="cccsccccscc"
           id="rect4012"
           d="M 13.095915,17.743657 C 12.446209,17.74956 12.279775,18.014612 12.291105,18.262564 L 12.291105,22.861979 C 12.291105,23.137035 12.473229,23.357302 12.693509,23.357302 C 12.91379,23.357302 13.067171,23.137034 13.067171,22.861979 L 13.067171,18.752134 C 13.082492,17.966525 13.852732,17.932477 14.611856,17.932351 L 18.700834,17.932351 C 19.036022,17.932351 19.304441,17.889328 19.304441,17.838004 C 19.304441,17.786679 19.036021,17.743657 18.700834,17.743657 L 13.095915,17.743657 z "
           style="opacity:1;fill:url(#linearGradient5570);fill-opacity:1;fill-rule:evenodd;stroke:none;stroke-width:0.5;stroke-linecap:round;stroke-linejoin:miter;stroke-miterlimit:4;stroke-dasharray:none;stroke-dashoffset:0;stroke-opacity:1;display:inline" />
      </g>
    </g>
  </g>
  <g
     inkscape:groupmode="layer"
     id="layer7"
     inkscape:label="whiter"
     style="display:inline"
     sodipodi:insensitive="true">
    <path
       style="fill:white;fill-opacity:1;fill-rule:evenodd;stroke:none;stroke-width:0.40000001;stroke-linecap:round;stroke-linejoin:miter;stroke-miterlimit:4;stroke-dashoffset:0;stroke-opacity:1;display:inline"
       d="M 2,28.5 L 30,22 L 30,31 L 2,31 L 2,28.5 z "
       id="rect13064"
       sodipodi:nodetypes="ccccc" />
    <path
       sodipodi:nodetypes="ccccc"
       id="path1921"
       d="M 2,27.5 L 30,21.5 L 30,23.5 L 2,29.5 L 2,27.5 z "
       style="fill:url(#linearGradient1923);fill-opacity:1;fill-rule:evenodd;stroke:none;stroke-width:0.40000001;stroke-linecap:round;stroke-linejoin:miter;stroke-miterlimit:4;stroke-dashoffset:0;stroke-opacity:1;display:inline" />
  </g>
  <g
     inkscape:groupmode="layer"
     id="layer6"
     inkscape:label="foreground"
     style="display:inline"
     sodipodi:insensitive="true">
    <path
       style="fill:black;fill-opacity:1;fill-rule:evenodd;stroke:none;stroke-width:0.40000001;stroke-linecap:round;stroke-linejoin:miter;stroke-miterlimit:4;stroke-dashoffset:0;stroke-opacity:1;display:inline"
       d="M 2,0 L 30,0 L 30,9 L 2,14.5 L 2,0 z "
       id="rect5943"
       sodipodi:nodetypes="ccccc" />
    <path
       style="opacity:0.4182692;fill:black;fill-opacity:1;fill-rule:evenodd;stroke:none;stroke-width:0.40000001;stroke-linecap:round;stroke-linejoin:miter;stroke-miterlimit:4;stroke-dashoffset:0;stroke-opacity:1;display:inline"
       d="M 2,14 L 30,8.5 L 30,10.5 L 2,16 L 2,14 z "
       id="rect6832"
       sodipodi:nodetypes="ccccc" />
  </g>
  <g
     inkscape:groupmode="layer"
     id="layer10"
     inkscape:label="border"
     style="display:inline"
     sodipodi:insensitive="true">
    <rect
       y="0.5"
       x="2.25"
       height="30.249998"
       width="27.500004"
       id="rect9503"
       style="opacity:1;fill:none;fill-opacity:1;fill-rule:evenodd;stroke:black;stroke-width:0.49999994;stroke-linecap:round;stroke-linejoin:miter;stroke-miterlimit:4;stroke-dasharray:none;stroke-dashoffset:0;stroke-opacity:1;display:inline" />
  </g>
  <g
     inkscape:groupmode="layer"
     id="layer3"
     inkscape:label="Title"
     style="display:inline"
     sodipodi:insensitive="true">
    <text
       xml:space="preserve"
       style="font-size:9.11246777px;font-style:normal;font-variant:normal;font-weight:normal;font-stretch:normal;text-align:center;line-height:100%;writing-mode:lr-tb;text-anchor:middle;fill:white;fill-opacity:1;stroke:none;stroke-width:0.40000001;stroke-linecap:butt;stroke-linejoin:miter;stroke-miterlimit:4;stroke-dasharray:none;stroke-opacity:1;font-family:Times New Roman"
       x="19.062847"
       y="6.5987983"
       id="text4155"
       sodipodi:linespacing="100%"
       transform="scale(0.83551,1.196874)"><tspan
         sodipodi:role="line"
         id="tspan4157"
         x="19.062848"
         y="6.5987983"
         style="font-size:7.59374714px;font-style:normal;font-variant:normal;font-weight:bold;font-stretch:normal;text-align:center;line-height:100%;writing-mode:lr-tb;text-anchor:middle;fill:white;fill-opacity:1;stroke:none;stroke-width:0.40000001;stroke-miterlimit:4;stroke-dasharray:none;stroke-opacity:1;font-family:Consolas">SCYTHER</tspan></text>
  </g>
</svg>
