<?xml version="1.0" encoding="UTF-8" standalone="no"?>
<!-- Created with Inkscape (http://www.inkscape.org/) -->
<svg
   xmlns:dc="http://purl.org/dc/elements/1.1/"
   xmlns:cc="http://web.resource.org/cc/"
   xmlns:rdf="http://www.w3.org/1999/02/22-rdf-syntax-ns#"
   xmlns:svg="http://www.w3.org/2000/svg"
   xmlns="http://www.w3.org/2000/svg"
   xmlns:xlink="http://www.w3.org/1999/xlink"
   xmlns:sodipodi="http://sodipodi.sourceforge.net/DTD/sodipodi-0.dtd"
   xmlns:inkscape="http://www.inkscape.org/namespaces/inkscape"
   width="32"
   height="32"
   id="svg2"
   sodipodi:version="0.32"
   inkscape:version="0.44"
   version="1.0"
   sodipodi:docbase="/home/cas/svn/scyther/Design"
   sodipodi:docname="scyther-button-beta6-angle.svg">
  <defs
     id="defs4">
    <linearGradient
       id="linearGradient16752">
      <stop
         id="stop16754"
         offset="0"
         style="stop-color:black;stop-opacity:0;" />
      <stop
         style="stop-color:black;stop-opacity:0;"
         offset="0.06537243"
         id="stop16760" />
      <stop
         style="stop-color:black;stop-opacity:1;"
         offset="0.81061816"
         id="stop16758" />
      <stop
         id="stop16756"
         offset="1"
         style="stop-color:black;stop-opacity:0.98989898;" />
    </linearGradient>
    <linearGradient
       id="linearGradient15734">
      <stop
         id="stop15736"
         offset="0"
         style="stop-color:#faffdb;stop-opacity:1;" />
      <stop
         id="stop15738"
         offset="1"
         style="stop-color:#89cae1;stop-opacity:0.99215686;" />
    </linearGradient>
    <linearGradient
       id="linearGradient7727">
      <stop
         id="stop7729"
         offset="0"
         style="stop-color:#fca724;stop-opacity:1;" />
      <stop
         id="stop7731"
         offset="1"
         style="stop-color:#13d035;stop-opacity:1;" />
    </linearGradient>
    <linearGradient
       id="linearGradient4004">
      <stop
         style="stop-color:#60524a;stop-opacity:1;"
         offset="0"
         id="stop4006" />
      <stop
         style="stop-color:#f8fcdf;stop-opacity:1;"
         offset="1"
         id="stop4008" />
    </linearGradient>
    <linearGradient
       id="linearGradient3973">
      <stop
         style="stop-color:#fffb64;stop-opacity:1;"
         offset="0"
         id="stop3975" />
      <stop
         id="stop5940"
         offset="0.65816855"
         style="stop-color:#ff9a3c;stop-opacity:1;" />
      <stop
         style="stop-color:#8478b6;stop-opacity:1;"
         offset="0.77419353"
         id="stop16741" />
      <stop
         style="stop-color:#3d49fe;stop-opacity:1;"
         offset="1"
         id="stop3977" />
    </linearGradient>
    <linearGradient
       inkscape:collect="always"
       xlink:href="#linearGradient7727"
       id="linearGradient7725"
       x1="-3.2503023"
       y1="13.136638"
       x2="30.916565"
       y2="13.136638"
       gradientUnits="userSpaceOnUse"
       gradientTransform="matrix(0.943825,0,0,1.001104,0.488009,0.695794)" />
    <radialGradient
       inkscape:collect="always"
       xlink:href="#linearGradient15734"
       id="radialGradient15740"
       cx="16"
       cy="19.760824"
       fx="16"
       fy="19.760824"
       r="16"
       gradientUnits="userSpaceOnUse"
       gradientTransform="matrix(1.000305,-5.424031e-7,6.674017e-7,1.235053,-4.883312e-3,-4.644804)" />
    <radialGradient
       inkscape:collect="always"
       xlink:href="#linearGradient3973"
       id="radialGradient15749"
       gradientUnits="userSpaceOnUse"
       gradientTransform="matrix(-0.722495,-0.985046,0.932073,-0.67523,17.35055,41.18893)"
       cx="18.213299"
       cy="10.772547"
       fx="18.213299"
       fy="10.772547"
       r="4.171875" />
    <linearGradient
       inkscape:collect="always"
       xlink:href="#linearGradient3973"
       id="linearGradient15751"
       gradientUnits="userSpaceOnUse"
       gradientTransform="matrix(0.971492,0,0,0.965497,0.943914,8.90046)"
       spreadMethod="reflect"
       x1="13.349456"
       y1="14.045949"
       x2="19.811367"
       y2="13.968561" />
    <linearGradient
       inkscape:collect="always"
       xlink:href="#linearGradient4004"
       id="linearGradient15753"
       gradientUnits="userSpaceOnUse"
       gradientTransform="matrix(1.174088,0,0,1.158062,-2.18049,6.235385)"
       x1="13.919665"
       y1="13.454523"
       x2="16.304979"
       y2="15.389226" />
    <radialGradient
       inkscape:collect="always"
       xlink:href="#linearGradient16752"
       id="radialGradient16750"
       cx="16.15625"
       cy="19.352287"
       fx="16.15625"
       fy="19.352287"
       r="14.5"
       gradientTransform="matrix(1,0,0,0.998922,0,2.085402e-2)"
       gradientUnits="userSpaceOnUse"
       spreadMethod="pad" />
  </defs>
  <sodipodi:namedview
     id="base"
     pagecolor="#ffffff"
     bordercolor="#666666"
     borderopacity="1.0"
     gridtolerance="10000"
     guidetolerance="10"
     objecttolerance="10"
     inkscape:pageopacity="0.0"
     inkscape:pageshadow="2"
     inkscape:zoom="25.84375"
     inkscape:cx="16"
     inkscape:cy="15.304296"
     inkscape:document-units="px"
     inkscape:current-layer="layer2"
     width="32px"
     height="32px"
     inkscape:window-width="1280"
     inkscape:window-height="1024"
     inkscape:window-x="0"
     inkscape:window-y="0"
     showgrid="true"
     gridspacingx="0.5px"
     gridspacingy="0.5px"
     gridempspacing="8" />
  <metadata
     id="metadata7">
    <rdf:RDF>
      <cc:Work
         rdf:about="">
        <dc:format>image/svg+xml</dc:format>
        <dc:type
           rdf:resource="http://purl.org/dc/dcmitype/StillImage" />
      </cc:Work>
    </rdf:RDF>
  </metadata>
  <g
     inkscape:groupmode="layer"
     id="layer4"
     inkscape:label="background"
     style="display:inline"
     sodipodi:insensitive="true">
    <rect
       style="opacity:1;fill:url(#radialGradient15740);fill-opacity:1;fill-rule:evenodd;stroke:none;stroke-width:1;stroke-linecap:round;stroke-linejoin:miter;stroke-miterlimit:4;stroke-dasharray:none;stroke-dashoffset:0;stroke-opacity:1;display:inline"
       id="rect5945"
       width="32"
       height="32"
       x="0"
       y="4.3612032e-16" />
  </g>
  <g
     inkscape:groupmode="layer"
     id="layer8"
     inkscape:label="wheel"
     style="opacity:1"
     sodipodi:insensitive="true">
    <path
       style="opacity:0.36538463;fill:url(#radialGradient16750);fill-opacity:1;fill-rule:evenodd;stroke:none;stroke-width:2.5999999;stroke-linecap:round;stroke-linejoin:miter;stroke-miterlimit:4;stroke-dasharray:none;stroke-dashoffset:0;stroke-opacity:1"
       d="M 16.15625,4.8679124 C 8.1687448,4.8679124 1.65625,11.380407 1.65625,19.367912 C 1.65625,27.355417 8.168745,33.836661 16.15625,33.836662 C 24.143755,33.836662 30.656249,27.355417 30.65625,19.367912 C 30.65625,11.380407 24.143755,4.8679124 16.15625,4.8679124 z M 16.15625,7.4616624 C 16.697605,7.4616624 17.2279,7.5168499 17.75,7.5866624 L 16.21875,16.211662 L 14.71875,7.5554124 C 15.189928,7.4987572 15.669364,7.4616624 16.15625,7.4616624 z M 13.75,7.7116624 L 15.28125,16.367912 L 10.84375,8.7116624 C 11.756326,8.2536641 12.720321,7.9223305 13.75,7.7116624 z M 18.71875,7.7429124 C 19.731387,7.9643982 20.695909,8.3132696 21.59375,8.7741624 L 17.1875,16.336662 L 18.71875,7.7429124 z M 9.96875,9.2116624 L 14.375,16.836662 L 7.59375,11.149162 C 8.2993128,10.411136 9.0936235,9.7480514 9.96875,9.2116624 z M 22.4375,9.2741624 C 23.305072,9.8146634 24.082202,10.472963 24.78125,11.211662 L 18.03125,16.867912 L 22.4375,9.2741624 z M 6.9375,11.899162 L 13.75,17.586662 L 5.3125,14.524162 C 5.7349423,13.572821 6.2929689,12.698735 6.9375,11.899162 z M 25.4375,11.930412 C 26.078276,12.728142 26.611184,13.60798 27.03125,14.555412 L 18.71875,17.586662 L 25.4375,11.930412 z M 4.96875,15.461662 L 13.4375,18.524162 L 4.3125,18.524162 C 4.3872582,17.450994 4.6300753,16.437325 4.96875,15.461662 z M 27.40625,15.492912 C 27.73907,16.457409 27.957037,17.464906 28.03125,18.524162 L 19.03125,18.524162 L 27.40625,15.492912 z M 4.28125,19.524162 L 13.4375,19.524162 L 4.75,22.680412 C 4.4602331,21.675762 4.2953604,20.621331 4.28125,19.524162 z M 19.03125,19.524162 L 28.0625,19.524162 C 28.048584,20.599893 27.874386,21.630767 27.59375,22.617912 L 19.03125,19.524162 z M 13.71875,20.461662 L 6.625,26.430412 C 5.9943965,25.577625 5.4795569,24.625858 5.09375,23.617912 L 13.71875,20.461662 z M 18.6875,20.461662 L 27.28125,23.586662 C 26.900396,24.586867 26.372523,25.519285 25.75,26.367912 L 18.6875,20.461662 z M 14.375,21.211662 L 9.6875,29.336662 C 8.7723947,28.744105 7.9670369,28.02673 7.25,27.211662 L 14.375,21.211662 z M 18.0625,21.211662 L 25.15625,27.149162 C 24.445728,27.966717 23.627,28.675933 22.71875,29.274162 L 18.0625,21.211662 z M 15.28125,21.680412 L 13.625,30.961662 C 12.534221,30.727064 11.517736,30.346866 10.5625,29.836662 L 15.28125,21.680412 z M 17.21875,21.742912 L 21.875,29.774162 C 20.935867,30.286134 19.915527,30.684802 18.84375,30.930412 L 17.21875,21.742912 z M 16.25,21.836662 L 17.875,31.117912 C 17.313986,31.198391 16.739846,31.242912 16.15625,31.242912 C 15.625455,31.242912 15.105702,31.184696 14.59375,31.117912 L 16.25,21.836662 z "
       id="path15775" />
  </g>
  <g
     inkscape:groupmode="layer"
     id="layer2"
     inkscape:label="Lock"
     style="opacity:1;display:inline">
    <g
       id="g15742"
       transform="matrix(0.866714,0,0,0.886041,2.211585,0.475051)">
      <path
         id="path3968"
         d="M 15.908731,14.421896 C 13.802584,14.421896 12.113842,16.472241 12.113842,18.977835 C 12.113842,21.483429 13.802585,23.503603 15.908731,23.503603 C 18.014878,23.503603 19.733978,21.48343 19.733979,18.977835 C 19.733979,16.472241 18.014878,14.421896 15.908731,14.421896 z M 15.908731,15.900314 C 17.205621,15.900314 18.276742,17.276507 18.276742,18.977835 C 18.276742,20.679164 17.205621,22.055357 15.908731,22.055357 C 14.611843,22.055357 13.57108,20.679164 13.57108,18.977835 C 13.57108,17.276506 14.611842,15.900314 15.908731,15.900314 z "
         style="fill:url(#radialGradient15749);fill-opacity:1;fill-rule:evenodd;stroke:#010101;stroke-width:0.57056499;stroke-linecap:round;stroke-linejoin:round;stroke-miterlimit:4;stroke-dasharray:none;stroke-dashoffset:0;stroke-opacity:1" />
      <rect
         y="18.539085"
         x="11.582154"
         height="8.2937012"
         width="8.6835117"
         id="rect3966"
         style="fill:url(#linearGradient15751);fill-opacity:1;fill-rule:evenodd;stroke:#010101;stroke-width:0.57056499;stroke-linecap:round;stroke-linejoin:round;stroke-miterlimit:4;stroke-dasharray:none;stroke-dashoffset:0;stroke-opacity:1" />
      <path
         sodipodi:nodetypes="csccccsc"
         id="path3991"
         d="M 15.907793,19.661672 C 14.942311,19.661672 14.183352,20.435006 14.183352,21.362575 C 14.183352,22.110087 14.691248,22.736932 15.39413,22.954912 L 15.39413,25.464783 L 16.458147,25.464783 L 16.458147,22.954912 C 17.161029,22.736932 17.668924,22.110087 17.668924,21.362575 C 17.668924,20.435006 16.873276,19.661672 15.907793,19.661672 z "
         style="fill:black;fill-opacity:1;fill-rule:evenodd;stroke:url(#linearGradient15753);stroke-width:0.3423391;stroke-linecap:round;stroke-linejoin:miter;stroke-miterlimit:4;stroke-dasharray:none;stroke-dashoffset:0;stroke-opacity:1" />
      <path
         sodipodi:nodetypes="cccsccccscc"
         id="rect4012"
         d="M 13.03125,18.875 C 12.324881,18.882823 12.143932,19.233988 12.15625,19.5625 L 12.15625,25.65625 C 12.15625,26.020671 12.354258,26.3125 12.59375,26.3125 C 12.833242,26.3125 13,26.02067 13,25.65625 L 13,20.211129 C 13.016657,19.170278 13.854074,19.125167 14.679404,19.125 L 19.125,19.125 C 19.489421,19.125 19.78125,19.067999 19.78125,19 C 19.78125,18.932 19.48942,18.875 19.125,18.875 L 13.03125,18.875 z "
         style="fill:#fefefe;fill-opacity:1;fill-rule:evenodd;stroke:none;stroke-width:0.30000001;stroke-linecap:round;stroke-linejoin:miter;stroke-miterlimit:4;stroke-dasharray:none;stroke-dashoffset:0;stroke-opacity:1" />
      <path
         transform="matrix(0.556575,-0.346384,0.415335,0.379295,3.295993,17.71276)"
         d="M 15.903264 7.4099154 A 1.2769045 0.52237004 0 1 1  13.349455,7.4099154 A 1.2769045 0.52237004 0 1 1  15.903264 7.4099154 z"
         sodipodi:ry="0.52237004"
         sodipodi:rx="1.2769045"
         sodipodi:cy="7.4099154"
         sodipodi:cx="14.62636"
         id="path4014"
         style="fill:#fefefe;fill-opacity:1;fill-rule:evenodd;stroke:none;stroke-width:0.30000001;stroke-linecap:round;stroke-linejoin:miter;stroke-miterlimit:4;stroke-dasharray:none;stroke-dashoffset:0;stroke-opacity:1"
         sodipodi:type="arc" />
    </g>
  </g>
  <g
     inkscape:groupmode="layer"
     id="layer7"
     inkscape:label="whiter"
     sodipodi:insensitive="true"
     style="display:inline">
    <path
       transform="matrix(0.983472,-0.181061,0.192133,0.981369,0,0)"
       style="fill:white;fill-opacity:1;fill-rule:evenodd;stroke:none;stroke-width:0.40000001;stroke-linecap:round;stroke-linejoin:miter;stroke-miterlimit:4;stroke-dashoffset:0;stroke-opacity:1;display:inline"
       d="M -5.6540284,28.983055 L 26.593496,28.983055 L 25.111552,37.165354 L -6.2246874,31.695185 L -5.6540284,28.983055 z "
       id="rect13064"
       sodipodi:nodetypes="ccccc" />
  </g>
  <g
     inkscape:groupmode="layer"
     id="layer6"
     inkscape:label="foreground"
     style="display:inline"
     sodipodi:insensitive="true">
    <path
       style="fill:black;fill-opacity:1;fill-rule:evenodd;stroke:none;stroke-width:0.40000001;stroke-linecap:round;stroke-linejoin:miter;stroke-miterlimit:4;stroke-dashoffset:0;stroke-opacity:1;display:inline"
       d="M 0.5747889,0.5 L 31.5,0.5 L 31.5,8.2705224 L 0.5,14.244257 L 0.5747889,0.5 z "
       id="rect5943"
       sodipodi:nodetypes="ccccc" />
    <path
       transform="matrix(0.983472,-0.181061,0.192133,0.981369,0,0)"
       style="fill:url(#linearGradient7725);fill-opacity:1;fill-rule:evenodd;stroke:none;stroke-width:0.40000001;stroke-linecap:round;stroke-linejoin:miter;stroke-miterlimit:4;stroke-dashoffset:0;stroke-opacity:1;display:inline"
       d="M -2.5797045,13.246504 L 29.667816,13.246504 L 29.463608,15.149219 L -2.7839125,15.149219 L -2.5797045,13.246504 z "
       id="rect6832"
       sodipodi:nodetypes="ccccc" />
    <rect
       y="0.5"
       x="0.5"
       height="31"
       width="31"
       id="rect9503"
       style="opacity:1;fill:none;fill-opacity:1;fill-rule:evenodd;stroke:black;stroke-width:0.99999994;stroke-linecap:round;stroke-linejoin:miter;stroke-miterlimit:4;stroke-dasharray:none;stroke-dashoffset:0;stroke-opacity:1;display:inline" />
  </g>
  <g
     inkscape:groupmode="layer"
     id="layer3"
     inkscape:label="Title"
     style="display:inline"
     sodipodi:insensitive="true">
    <text
       xml:space="preserve"
       style="font-size:10.33518028px;font-style:normal;font-variant:normal;font-weight:normal;font-stretch:normal;text-align:center;line-height:100%;writing-mode:lr-tb;text-anchor:middle;fill:white;fill-opacity:1;stroke:none;stroke-width:0.40000001;stroke-linecap:butt;stroke-linejoin:miter;stroke-miterlimit:4;stroke-dasharray:none;stroke-opacity:1;font-family:Times New Roman"
       x="17.724472"
       y="7.0577669"
       id="text4155"
       sodipodi:linespacing="100%"
       transform="scale(0.897748,1.113899)"><tspan
         sodipodi:role="line"
         id="tspan4157"
         x="17.724472"
         y="7.0577669"
         style="font-size:8.61264801px;font-style:normal;font-variant:normal;font-weight:bold;font-stretch:normal;text-align:center;line-height:100%;writing-mode:lr-tb;text-anchor:middle;fill:white;fill-opacity:1;stroke:none;stroke-width:0.40000001;stroke-miterlimit:4;stroke-dasharray:none;stroke-opacity:1;font-family:Consolas">Scyther</tspan></text>
  </g>
</svg>
